<?xml version="1.0" encoding="UTF-8" standalone="no"?>
<svg
   xmlns:dc="http://purl.org/dc/elements/1.1/"
   xmlns:cc="http://creativecommons.org/ns#"
   xmlns:rdf="http://www.w3.org/1999/02/22-rdf-syntax-ns#"
   xmlns:svg="http://www.w3.org/2000/svg"
   xmlns="http://www.w3.org/2000/svg"
   xmlns:sodipodi="http://sodipodi.sourceforge.net/DTD/sodipodi-0.dtd"
   xmlns:inkscape="http://www.inkscape.org/namespaces/inkscape"
   inkscape:version="1.0 (4035a4fb49, 2020-05-01)"
   sodipodi:docname="1482822.svg"
   height="512"
   width="512"
   xml:space="preserve"
   style="enable-background:new 0 0 507.611 507.611;"
   viewBox="0 0 507.611 507.611"
   y="0px"
   x="0px"
   id="Capa_1"
   version="1.1"><metadata
   id="metadata20"><rdf:RDF><cc:Work
       rdf:about=""><dc:format>image/svg+xml</dc:format><dc:type
         rdf:resource="http://purl.org/dc/dcmitype/StillImage" /></cc:Work></rdf:RDF></metadata><defs
   id="defs18">
	
	
	
	
	
	
	
	
	
	
	
	
</defs><sodipodi:namedview
   inkscape:current-layer="Capa_1"
   inkscape:window-maximized="1"
   inkscape:window-y="-8"
   inkscape:window-x="-8"
   inkscape:cy="296.27754"
   inkscape:cx="140.59378"
   inkscape:zoom="0.74301455"
   inkscape:snap-intersection-paths="true"
   inkscape:snap-midpoints="false"
   showgrid="false"
   id="namedview16"
   inkscape:window-height="705"
   inkscape:window-width="1366"
   inkscape:pageshadow="2"
   inkscape:pageopacity="0"
   guidetolerance="10"
   gridtolerance="10"
   objecttolerance="10"
   borderopacity="1"
   bordercolor="#666666"
   pagecolor="#ffffff" />
<path
   inkscape:export-ydpi="300"
   inkscape:export-xdpi="300"
   id="XMLID_2251_"
   style="fill:#9ca2b5"
   d="m 363.30484,159.15385 c -3.88901,0 -7.77401,-1.502 -10.71201,-4.499 -5.80002,-5.91598 -5.706,-15.413 0.21,-21.212 l 129.23,-126.7050032 c 5.91399,-5.80000733 15.412,-5.7059989 21.212,0.2090038 5.8,5.9149974 5.706,15.4129934 -0.21,21.2119954 l -129.23,126.706004 c -2.919,2.863 -6.71101,4.289 -10.49999,4.289 z" /><path
   inkscape:export-ydpi="300"
   inkscape:export-xdpi="300"
   id="XMLID_285_"
   style="fill:#cdd2e1"
   d="m 353.09883,155.12185 149.12,-149.120001 c -5.844,-4.9550034 -14.607,-4.7339985 -20.186,0.7369998 l -129.23,126.7040012 c -5.91598,5.80002 -6.01,15.297 -0.21,21.212 0.16188,0.16612 0.338,0.31 0.50602,0.46698 z" /><path
   inkscape:export-ydpi="300"
   inkscape:export-xdpi="300"
   id="XMLID_2239_"
   style="fill:#9ca2b5"
   d="m 14.923825,505.53485 c -3.88599,0 -7.7679923,-1.5 -10.7039987,-4.49101 -5.8050355,-5.91096 -5.7170007,-15.40799 0.1940018,-21.212 L 114.37683,371.86885 c 5.91202,-5.80398 15.41,-5.715 21.212,0.195 5.80497,5.91104 5.717,15.408 -0.194,21.21199 L 25.431828,501.23785 c -2.920019,2.86698 -6.716002,4.297 -10.508003,4.297 z" /><path
   inkscape:export-ydpi="300"
   inkscape:export-xdpi="300"
   id="XMLID_239_"
   style="fill:#cdd2e1"
   d="m 5.798824,502.42085 130.057006,-130.057 c -0.092,-0.099 -0.17202,-0.20398 -0.26703,-0.30097 -5.80198,-5.91003 -15.3,-5.999 -21.212,-0.19501 L 4.4137999,479.83088 c -5.9110238,5.80397 -5.9990021,15.30099 -0.1939948,21.212 0.4980507,0.50795 1.0319729,0.95603 1.5789907,1.378 z" /><path
   inkscape:export-ydpi="300"
   inkscape:export-xdpi="300"
   id="XMLID_237_"
   style="fill:#f2c275"
   d="m 411.89083,190.58285 c -1.976,-10.651 -7.462,-19.287 -13.096,-27.033 -14.51,-19.948 -31.842,-37.60601 -51.515,-52.486 -11.406,-8.628 -28.867,-19.657005 -48.706,-15.838006 -39.593,7.623006 -55.758,53.534006 -61.069,68.620006 0,0 0,0 0,0 -0.999,2.836 -2.21401,6.104 -3.651,8.831 -4.307,7.949 -38.124,39.753 -54.376,55.038 -7.665,7.208 -14.285,13.434 -18.228,17.376 -1.418,1.418 -3.174,2.501 -5.07701,3.133 l -12.62199,4.187 c -26.186,8.687 -63.66,36.382 -64.990004,70.758 -0.631001,16.319 6.822004,30.405 12.483009,39.582 14.152985,22.935 33.986995,42.15099 57.357995,55.571 8.376,4.809 20.729,10.889 34.804,10.889 1.59,0 3.204,-0.078 4.835,-0.244 32.42699,-3.3 58.704,-40.03201 67.00599,-65.06 0.001,-0.003 0.001,-0.007 0.004,-0.01 l 4.184,-12.611 c 0.632,-1.90401 1.715,-3.66 3.133,-5.07801 l 71.711,-71.70999 c 3.873,-1.285 9.701,-3.218 9.701,-3.218 27.07,-8.982 76.144,-37.404 68.111,-80.69701 z" /><path
   inkscape:export-ydpi="300"
   inkscape:export-xdpi="300"
   id="XMLID_90_"
   style="fill:#ffde91"
   d="m 115.19082,393.02885 258.70301,-258.703 c -8.3,-8.354 -17.185,-16.131 -26.614,-23.262 -11.406,-8.628 -28.867,-19.657005 -48.706,-15.838006 -39.593,7.623006 -55.758,53.534006 -61.069,68.620006 0,0 0,0 0,0 -0.999,2.836 -2.21401,6.104 -3.651,8.831 -4.307,7.949 -38.124,39.753 -54.376,55.038 -7.665,7.208 -14.285,13.434 -18.228,17.376 -1.418,1.418 -3.174,2.501 -5.07701,3.133 l -12.62199,4.187 c -26.186,8.687 -63.66,36.382 -64.990004,70.758 -0.631001,16.319 6.822004,30.405 12.483009,39.582 6.809996,11.034 14.945995,21.196 24.146985,30.278 z" /><path
   inkscape:export-ydpi="300"
   inkscape:export-xdpi="300"
   id="XMLID_2267_"
   style="fill:#000000"
   d="m 292.40882,316.16885 -21.21,21.21 L 170.22888,236.4188 c 1.10296,-1.04004 19.738,-18.589 21.84,-20.58 z" /><path
   inkscape:export-ydpi="300"
   inkscape:export-xdpi="300"
   id="XMLID_168_"
   style="fill:#333333"
   d="m 242.22783,265.99285 -50.15932,-50.15367 c -2.10201,1.99099 -20.73701,19.53999 -21.84001,20.57999 l 50.78933,50.78368 z" /><path
   inkscape:export-ydpi="300"
   inkscape:export-xdpi="300"
   id="XMLID_2266_"
   style="fill:#784421"
   d="m 340.15883,272.47885 c -1.9,0.62999 -4.22,1.39 -6.08,2.02 l -17.16,17.15999 -100.00998,-99.95002 c 3.95001,-3.97999 7.53,-7.67999 10.39001,-10.82999 3.26999,-3.59001 5.60999,-6.47001 6.54999,-8.2 0.73,-1.38001 1.4,-2.9 2.02,-4.44 z" /><path
   inkscape:export-ydpi="300"
   inkscape:export-xdpi="300"
   id="XMLID_619_"
   style="fill:#c87137"
   d="m 287.93783,220.28285 -52.06902,-52.04399 c -0.61999,1.54 -1.28999,3.06 -2.02,4.44 -0.93999,1.73 -3.27999,4.61 -6.54999,8.2 -2.86001,3.15001 -6.44,6.85 -10.39001,10.83 l 49.81599,49.78601 z" /><path
   inkscape:export-ydpi="300"
   inkscape:export-xdpi="300"
   id="XMLID_2265_"
   style="fill:#d40000"
   d="m 396.40883,238.31885 c -3.34,3.68999 -7.03997,7.12002 -10.95001,10.27 -3.98,3.23 -8.16999,6.16 -12.40999,8.8 l -122.74,-122.74 c 1.48,-2.63001 3.11,-5.29001 4.87999,-7.91 1.11001,-1.65001 2.29001,-3.29 3.51,-4.91 3,-3.93 6.35001,-7.71 10.09001,-11.13 z" /><path
   inkscape:export-ydpi="300"
   inkscape:export-xdpi="300"
   id="XMLID_633_"
   style="fill:#ff2a2a"
   d="m 333.15483,175.06485 -64.366,-64.366 c -3.74,3.42 -7.08999,7.20001 -10.09001,11.13 -1.21999,1.62 -2.39999,3.25999 -3.51,4.91 -1.76999,2.61999 -3.39999,5.27999 -4.87999,7.91 l 61.631,61.631 z" />















<path
   inkscape:export-ydpi="300"
   inkscape:export-xdpi="300"
   sodipodi:nodetypes="ccccc"
   d="m 253.3657,368.51641 c -3.54757,9.25961 -8.51091,18.31695 -15.35925,27.10501 l -62.68447,-62.72373 21.22624,-21.19376 z"
   style="fill:#aa8800;stroke:none;stroke-width:1"
   id="XMLID_2267_-9" /><path
   inkscape:export-ydpi="300"
   inkscape:export-xdpi="300"
   sodipodi:nodetypes="ccccc"
   d="m 196.54822,311.70393 -57.615,-57.60934 c -10.06723,4.2358 -18.99895,9.43242 -27.02249,15.39751 l 63.42749,63.42183 z"
   style="fill:#ffdd55;stroke-width:0.999999;stroke:none"
   id="XMLID_168_-8" /></svg>
